<svg width="55" height="55" fill="none" xmlns="http://www.w3.org/2000/svg"><rect width="55" height="55" rx="24" fill="#F58634"/><path d="M40 19.5H14a1.5 1.5 0 0 0-1.5 1.5v14a1.5 1.5 0 0 0 1.5 1.5h26a1.5 1.5 0 0 0 1.5-1.5V21a1.5 1.5 0 0 0-1.5-1.5Zm-18.813 16L13.5 28.775v-1.55l7.688-6.725h11.625l7.687 6.725v1.55L32.812 35.5H21.188ZM40.5 21v4.9l-6.175-5.4H40a.5.5 0 0 1 .5.5ZM14 20.5h5.675L13.5 25.9V21a.5.5 0 0 1 .5-.5ZM13.5 35v-4.9l6.175 5.4H14a.5.5 0 0 1-.5-.5Zm26.5.5h-5.675l6.175-5.4V35a.5.5 0 0 1-.5.5Zm-13-12a4.5 4.5 0 1 0 0 9 4.5 4.5 0 0 0 0-9Zm0 8a3.5 3.5 0 1 1 3.5-3.5 3.512 3.512 0 0 1-3.5 3.5Z" fill="#F6F6F6"/></svg>