<svg width="55" height="55" viewBox="0 0 55 55" fill="none" xmlns="http://www.w3.org/2000/svg">
<rect width="55" height="55" rx="24" fill="#F58634"></rect>
<path d="M40 19.5H14C13.6022 19.5 13.2206 19.658 12.9393 19.9393C12.658 20.2206 12.5 20.6022 12.5 21V35C12.5 35.3978 12.658 35.7794 12.9393 36.0607C13.2206 36.342 13.6022 36.5 14 36.5H40C40.3978 36.5 40.7794 36.342 41.0607 36.0607C41.342 35.7794 41.5 35.3978 41.5 35V21C41.5 20.6022 41.342 20.2206 41.0607 19.9393C40.7794 19.658 40.3978 19.5 40 19.5ZM21.1875 35.5L13.5 28.775V27.225L21.1875 20.5H32.8125L40.5 27.225V28.775L32.8125 35.5H21.1875ZM40.5 21V25.9L34.325 20.5H40C40.1326 20.5 40.2598 20.5527 40.3536 20.6464C40.4473 20.7402 40.5 20.8674 40.5 21ZM14 20.5H19.675L13.5 25.9V21C13.5 20.8674 13.5527 20.7402 13.6464 20.6464C13.7402 20.5527 13.8674 20.5 14 20.5ZM13.5 35V30.1L19.675 35.5H14C13.8674 35.5 13.7402 35.4473 13.6464 35.3536C13.5527 35.2598 13.5 35.1326 13.5 35ZM40 35.5H34.325L40.5 30.1V35C40.5 35.1326 40.4473 35.2598 40.3536 35.3536C40.2598 35.4473 40.1326 35.5 40 35.5ZM27 23.5C26.11 23.5 25.24 23.7639 24.4999 24.2584C23.7599 24.7529 23.1831 25.4557 22.8425 26.2779C22.5019 27.1002 22.4128 28.005 22.5865 28.8779C22.7601 29.7508 23.1887 30.5526 23.818 31.182C24.4474 31.8113 25.2492 32.2399 26.1221 32.4135C26.995 32.5872 27.8998 32.4981 28.7221 32.1575C29.5443 31.8169 30.2471 31.2401 30.7416 30.5001C31.2361 29.76 31.5 28.89 31.5 28C31.5 26.8065 31.0259 25.6619 30.182 24.818C29.3381 23.9741 28.1935 23.5 27 23.5ZM27 31.5C26.3078 31.5 25.6311 31.2947 25.0555 30.9101C24.4799 30.5256 24.0313 29.9789 23.7664 29.3394C23.5015 28.6999 23.4322 27.9961 23.5673 27.3172C23.7023 26.6382 24.0356 26.0146 24.5251 25.5251C25.0146 25.0356 25.6383 24.7023 26.3172 24.5673C26.9961 24.4322 27.6999 24.5015 28.3394 24.7664C28.9789 25.0313 29.5256 25.4799 29.9101 26.0555C30.2947 26.6311 30.5 27.3078 30.5 28C30.4967 28.9272 30.1269 29.8156 29.4712 30.4712C28.8156 31.1269 27.9272 31.4967 27 31.5Z" fill="#F6F6F6"></path>
</svg>
